<?xml version="1.0" encoding="utf-8"?>
<!-- Generator: Adobe Illustrator 23.0.1, SVG Export Plug-In . SVG Version: 6.00 Build 0)  -->
<svg version="1.1" id="Layer_1" xmlns="http://www.w3.org/2000/svg" xmlns:xlink="http://www.w3.org/1999/xlink" x="0px" y="0px"
	 viewBox="0 0 646.3 144" style="enable-background:new 0 0 646.3 144;" xml:space="preserve">
<style type="text/css">
	.st0{fill:#7F7873;}
	.st1{fill:#BD2227;}
</style>
<title>ent-logo1</title>
<path class="st0" d="M398.4,69v-2.4c0-16.1,3.6-23.8,12.3-23.8c7.5,0,11.7,8.1,11.7,23.4v2.9L398.4,69L398.4,69z M380.5,74.9
	c0,20.5,12.7,34.7,31,34.7c13.1,0,21.8-5.9,25.6-17.2l0.3-1l-5.2-1.4l-0.3,0.8c-2.5,7.3-9.4,13.3-17.3,13.3
	c-10.8,0-16.2-7.9-16.2-25.3v-4.3h40.3v-1.8c0-20.5-11.1-34.2-28.5-34.2C393.5,38.7,380.5,54.3,380.5,74.9z"/>
<path class="st0" d="M563.1,24.9c0,4.6,4.9,8.5,10.8,8.5s10.8-3.9,10.8-8.5c0-4.8-4.8-8.7-10.8-8.7S563.1,20.1,563.1,24.9z"/>
<path class="st0" d="M376.7,101.6c-2.7-0.2-4.3-2.1-4.3-9.6V45.8h9.9v-6.7h-9.9V19.5H368l-12.5,19.6H351v6.6h4.6v40.9
	c0,13.9,2.3,21.5,15.7,21.7l0.1,0.1h11.2v-6.9L376.7,101.6L376.7,101.6L376.7,101.6z"/>
<path class="st0" d="M593.5,56c0,12.8,8.9,18.3,21.3,24.1l3,1.4c10.3,4.8,15.1,7.9,15.1,13.4c0,7-5.9,10-10.9,10
	c-8.5,0-20.3-6.7-21.6-16.9h-6.3l0.1,20.3h6.6v-1.7c0-1.2,0.7-1.4,1.6-1.4c1.1,0,2.5,0.8,4.4,1.9c3.5,2,8.3,2.8,15.7,2.8
	c12.9,0,23.8-9.2,23.8-20.3c0-13.8-9.5-19.6-25.3-26.6l0,0c-9.5-4.2-14.9-6.8-14.9-11.2c0-4.7,4.4-8.8,10.3-8.8
	c9.2,0.1,17.3,6.3,19.9,15.1l6-0.2l0.1-18.9H636v1.8c0,0.9-0.3,1.3-1.4,1.3s-3.2-1.1-4.6-1.8c-4.6-1.8-9.5-2.7-14.4-2.5
	C603.6,37.8,593.5,45.5,593.5,56z"/>
<path class="st0" d="M453.5,144c15.4,0,27.4-4.2,35.4-12.4c7.5-7.7,11.5-18.8,11.5-32.2V50.3c0-2.2,0-3.1,0.6-3.7s1.3-0.8,4.4-0.8
	h1.4v-6.7h-21.9V49c-4.1-6.3-10.6-10.2-17.8-10.2c-13.8,0-24.6,15.5-24.6,35.4c0,20.8,11,35.3,26.9,35.3c5.6,0.2,11-2.2,14.6-6.6
	c0.1,1.6,0,3.1-0.1,4.7c-0.3,5.1-1.6,13.4-7.2,20.1c-5.3,6.4-13,10-23.3,10.9L453.5,144z M472.1,103.8c-8.5,0-11.8-8.8-11.8-31.4
	c0-18,3.7-27.1,10.9-27.1c6.5,0,13,7.5,13,21.9v16C484.1,96.1,479.6,103.8,472.1,103.8z"/>
<path class="st0" d="M590.6,101.6h-1.4c-3.1,0-3.8-0.2-4.4-0.8s-0.6-1.5-0.6-3.7l-0.1-58h-23.4v6.7h1.4c3.1,0,3.8,0.2,4.4,0.9
	s0.6,1.5,0.6,3.7v58h23.5L590.6,101.6z"/>
<path class="st0" d="M252.4,12c20.3,0,20.1,4.1,24.4,12.7h4.6V6.5h-62.3v6.7h1.9c3.1,0,3.8,0.2,4.4,0.8s0.6,1.5,0.6,3.7v79.4
	c0,2.2,0,3.1-0.6,3.7s-1.3,0.8-4.4,0.8h-1.9v6.7h63.2V87.5h-4.7c-3.6,10.5-3.9,15.1-23.4,15.1c-9.4,0-10.9-0.8-10.9-10.3V55.6h4
	c15.8,0,14.7,3.2,15.7,11.4l4.2-0.1V39.5l-4.1-0.1c-1.5,9.4,0.1,10.9-15.8,10.9h-4V19.9C243.3,13.1,241.8,12,252.4,12z"/>
<path class="st0" d="M350.9,101.6c-3.1,0-3.8-0.2-4.4-0.8s-0.6-1.5-0.6-3.7V64.2c0-16.5-4.9-25.4-20.2-25.4c-9.1,0-17.5,5-21,11.5
	V39.1h-21.8v6.7h1.4c3.1,0,3.8,0.2,4.4,0.8s0.6,1.5,0.6,3.7v58h22.9v-6.7h-1.4c-3.1,0-3.8-0.2-4.4-0.8s-0.6-1.5-0.6-3.7V67.3
	c0-12.8,9.2-21.9,16.2-21.9c5.6,0,7.5,7.1,7.5,14v48.9h22.9v-6.7L350.9,101.6z"/>
<path class="st0" d="M548.2,38.2c-6,0-12.3,5-15.9,15c0,0.1,0,0.1-0.1,0.1V39h-22.5v6.7h1.4c3.1,0,3.8,0.2,4.4,0.9s0.6,1.5,0.6,3.7
	v58h23.6v-6.7h-1.4c-3.1,0-3.8-0.2-4.4-0.8s-0.6-1.5-0.6-3.7v-26c0-13.9,3.6-20.9,6.4-20.9c1.3,0,1.2,1.5,2.1,4.1
	c1.2,3.3,4.3,5.4,7.8,5.3c5.7,0,9.1-3.8,9.1-10.5c0.2-5.8-4.4-10.7-10.3-10.9C548.4,38.2,548.3,38.2,548.2,38.2z"/>
<path class="st1" d="M107.3,27.1c-0.3-8.2-2.9-15.2-8.1-20.1S86.9-0.2,78.5,0C61.7,0.5,41.3,11.4,25.2,28.4S-0.5,66.5,0,83.3
	c0.2,8.5,3.1,15.5,8.2,20.3c14,13.2,41.8,7,65.5-13.3c-1.5-1.1-3-2.2-4.4-3.4c-10.8,8.7-22.4,13.9-32.1,14.2
	c-5.5,0.2-10.1-1.3-13.3-4.4s-5-7.5-5.1-13c-0.4-12.6,7.5-29.1,20.6-43S68.5,18,81.1,17.6c5.5-0.2,10.1,1.4,13.2,4.4
	c1.7,1.6,3,3.6,3.8,5.7c0.5,1.5,0.9,3,1.1,4.6c0.1,0.9,0.2,1.8,0.2,2.7c0.3,11.6-6.3,26.5-17.6,39.6c1.4,1,2.9,2,4.4,2.9
	c12.7-15.1,20-31.8,21-45.9C107.4,30.1,107.4,28.6,107.3,27.1z"/>
<path class="st1" d="M180,55.3c-10.1-13.4-30.8-23.9-54-27.1c-6.2-0.9-12.4-1.2-18.7-1.1c0,1.5,0,3-0.1,4.5c5.8-0.3,11.6,0,17.4,0.9
	c28.4,4,49.8,19.7,47.6,34.9s-27.1,24.3-55.5,20.3c-10.8-1.4-21.2-4.8-30.6-10.2c-1.5-0.9-3-1.9-4.4-2.9c-3.2-2.2-6-4.9-8.4-8
	c-3.4-4.5-4.9-9.4-4.2-13.9s3.4-8.8,7.9-12.2c5.4-4.1,13.2-6.9,22-8.2c-0.2-1.6-0.6-3.1-1.1-4.6c-23.4,2.9-41.1,14.2-43.3,29.8
	C53.1,67.9,58.7,78.3,69,86.9c1.4,1.2,2.9,2.3,4.4,3.4c10.7,7.4,25.1,13.1,41.4,15.4c36.2,5.2,68.2-8,71.3-29.4
	C187.3,69.4,185.1,62.1,180,55.3z"/>
</svg>
